<svg width="111" height="22" viewBox="0 0 111 22" fill="none" xmlns="http://www.w3.org/2000/svg"><path fill-rule="evenodd" clip-rule="evenodd" d="M106.227 3.274v17.6236h-2.158V3.2739h-3.836V1.3158h9.831v1.9581h-3.837Zm-8.3081 10.3643c-.3756.5502-.8472.9418-1.4146 1.175-.5675.2331-1.2429.3496-2.0262.3496-.3676 0-.7832-.0279-1.2468-.0839-.4636-.0559-.8472-.1212-1.1509-.1958v6.0144h-2.1581V1.5955c.6075-.2051 1.2189-.3497 1.8343-.4336.6155-.084 1.2829-.1259 2.0022-.1259.9591 0 1.7744.1166 2.4457.3497.6714.2331 1.2149.62 1.6305 1.161.4156.5407.7194 1.2588.9112 2.154.1918.895.2877 2.0047.2877 3.3288 0 1.3614-.0919 2.4991-.2757 3.4129-.1839.9138-.4636 1.6458-.8393 2.1959Zm-1.2228-8.1264c-.1199-.6714-.3077-1.203-.5635-1.5946-.2558-.3916-.5795-.6667-.9711-.8252-.3917-.1585-.8592-.2378-1.4027-.2378h-1.6785v10.3504h1.6785c.5435 0 1.011-.0792 1.4027-.2377.3916-.1586.7153-.4336.9711-.8253.2558-.3916.4436-.9231.5635-1.5945s.1798-1.5106.1798-2.5177c0-1.007-.0599-1.8463-.1798-2.5176ZM84.5273 15.8623h-4.7955l-1.079 5.0353h-2.158L80.571 1.3158h3.1171l4.0762 19.5818h-2.158l-1.079-5.0353ZM82.1775 4.1132h-.0959l-1.9902 9.7909h4.0763l-1.9902-9.791ZM71.8191 6.351h-.1199L68.2224 18.38h-2.158L62.5877 6.351h-.1199l-.7194 14.5466h-2.158l.9591-19.5818h2.6376l3.9084 13.4275h.0959l3.9084-13.4276h2.6375l.9591 19.5819h-2.158l-.7193-14.5465ZM55.706 19.0793c-.4476.7646-.9871 1.3055-1.6185 1.6225-.6314.317-1.3547.4756-2.17.4756-.8152 0-1.5385-.1586-2.17-.4756-.6314-.317-1.1709-.8579-1.6185-1.6225-.4475-.7646-.7872-1.795-1.019-3.0911-.2318-1.2962-.3477-2.9233-.3477-4.8815 0-1.9582.1159-3.5854.3477-4.8815s.5715-2.3265 1.019-3.0911c.4476-.7647.9871-1.3055 1.6185-1.6225.6315-.317 1.3548-.4756 2.17-.4756.8153 0 1.5386.1585 2.17.4756.6314.317 1.1709.8578 1.6185 1.6225.4476.7646.7873 1.795 1.0191 3.0911.2318 1.2961.3477 2.9233.3477 4.8815 0 1.9582-.1159 3.5853-.3477 4.8815-.2318 1.2961-.5715 2.3265-1.0191 3.0911ZM54.663 6.9665c-.1679-1.0816-.3877-1.9395-.6594-2.5736-.2717-.634-.5915-1.0723-.9591-1.3148-.3677-.2424-.7433-.3636-1.127-.3636-.3836 0-.7593.1212-1.1269.3636-.3677.2425-.6874.6807-.9591 1.3148-.2718.634-.4916 1.492-.6594 2.5736-.1679 1.0817-.2518 2.4617-.2518 4.1402 0 1.6784.0839 3.0585.2518 4.1402.1678 1.0816.3876 1.9395.6594 2.5736.2717.6341.5914 1.0723.9591 1.3148.3676.2424.7433.3636 1.1269.3636.3837 0 .7593-.1212 1.127-.3636.3676-.2425.6874-.6807.9591-1.3148.2717-.6341.4915-1.492.6594-2.5736.1678-1.0817.2518-2.4618.2518-4.1402 0-1.6785-.084-3.0585-.2518-4.1402ZM41.727 11.946h-5.0354v8.9517h-2.158V1.3158h2.158v8.672h5.0354v-8.672h2.158v19.5818h-2.158v-8.9517Zm-11.3887 8.9517-2.9972-8.3922-2.9972 8.3922h-2.158l3.5966-10.0707-3.237-9.5112h2.158l2.6376 7.8328 2.6376-7.8328h2.158l-3.2371 9.5112 3.5967 10.0707h-2.158ZM12.7146 1.3158h8.1525v1.9581h-5.9945v6.434h5.2752v1.9583h-5.2752v7.2732h5.9945v1.9582h-8.1525V1.3158ZM6.96 20.8976H4.802V3.2739H.9655V1.3158h9.8309v1.9581H6.96v17.6237Z" fill="#fff"/></svg>