<svg width="23" height="23" viewBox="0 0 23 23" fill="none" xmlns="http://www.w3.org/2000/svg"><path d="M11.04 0C4.94846 0 0 4.94846 0 11.04c0 6.0915 4.94846 11.04 11.04 11.04 6.0915 0 11.04-4.9485 11.04-11.04C22.08 4.94846 17.1315 0 11.04 0Zm0 .96c5.5727 0 10.08 4.50728 10.08 10.08 0 5.5727-4.5073 10.08-10.08 10.08-1.0194 0-2.0027-.1526-2.92969-.4331.41292-.6904.94602-1.6772 1.15781-2.4919.12583-.4831.64313-2.4534.64313-2.4534.33615.6418 1.31845 1.185 2.36435 1.185 3.1123 0 5.356-2.8623 5.356-6.4191 0-3.40997-2.7826-5.96062-6.3628-5.96062-4.45432 0-6.81849 2.98952-6.81849 6.24472 0 1.5138.80517 3.3983 2.09438 3.9984.19528.0909.30014.0515.345-.1378.03453-.1437.20868-.8441.28687-1.17.02501-.104.0129-.1939-.07125-.2963-.42669-.5175-.76875-1.4682-.76875-2.355 0-2.27632 1.72334-4.47934 4.65934-4.47934 2.5352 0 4.3107 1.72822 4.3107 4.19904 0 2.7916-1.4096 4.726-3.2438 4.726-1.0129 0-1.7714-.838-1.5281-1.8657.2917-1.2265.855-2.55.855-3.4359 0-.79226-.4252-1.45313-1.306-1.45313-1.03552 0-1.86745 1.07067-1.86745 2.50593 0 .9133.30938 1.5319.30938 1.5319s-1.02297 4.325-1.21032 5.13c-.18775.8044-.13746 1.8878-.06 2.6944C3.56215 18.8892.96 15.2733.96 11.04.96 5.46728 5.46728.96 11.04.96Z" fill="#FEFAFA"/></svg>